<svg xmlns="http://www.w3.org/2000/svg" width="820" height="360" viewBox="0 0 820 360" font-family="-apple-system,Segoe UI,Roboto,sans-serif">
  <rect width="820" height="360" rx="14" fill="#0d1117" stroke="#30363d"/>
  <text x="20" y="40" fill="#e6edf3" font-size="18" font-weight="700">Developer stats</text>
  <text x="800" y="40" fill="#6e7681" font-size="11" text-anchor="end">via NuGit · anonymized</text>
  <g transform="translate(20,70)">
      <rect width="184.5" height="72" rx="10" fill="#161b22" stroke="#30363d"/>
      <text x="14" y="34" fill="#e6edf3" font-size="24" font-weight="700">4,655</text>
      <text x="14" y="56" fill="#8b949e" font-size="12">Commits</text>
    </g><g transform="translate(218.5,70)">
      <rect width="184.5" height="72" rx="10" fill="#161b22" stroke="#30363d"/>
      <text x="14" y="34" fill="#e6edf3" font-size="24" font-weight="700">259</text>
      <text x="14" y="56" fill="#8b949e" font-size="12">Active days</text>
    </g><g transform="translate(417,70)">
      <rect width="184.5" height="72" rx="10" fill="#161b22" stroke="#30363d"/>
      <text x="14" y="34" fill="#e6edf3" font-size="24" font-weight="700">11d</text>
      <text x="14" y="56" fill="#8b949e" font-size="12">Current streak</text>
    </g><g transform="translate(615.5,70)">
      <rect width="184.5" height="72" rx="10" fill="#161b22" stroke="#30363d"/>
      <text x="14" y="34" fill="#e6edf3" font-size="24" font-weight="700">21,833,678</text>
      <text x="14" y="56" fill="#8b949e" font-size="12">Lines changed</text>
    </g>
  <text x="20" y="160" fill="#8b949e" font-size="12" font-weight="600">Languages</text>
  <rect x="20.0" y="172" width="388.4" height="12" fill="#4d9bf5"/><rect x="408.4" y="172" width="345.9" height="12" fill="#62b543"/><rect x="754.3" y="172" width="10.7" height="12" fill="#a371f7"/><rect x="765.0" y="172" width="10.2" height="12" fill="#e5c07b"/><rect x="775.2" y="172" width="9.1" height="12" fill="#db5c5c"/><rect x="784.3" y="172" width="6.4" height="12" fill="#5ac8fa"/><rect x="790.8" y="172" width="5.7" height="12" fill="#f0865a"/><rect x="796.4" y="172" width="3.6" height="12" fill="#8b949e"/>
  <g transform="translate(20,200)">
      <circle cx="5" cy="-4" r="5" fill="#4d9bf5"/>
      <text x="16" y="0" fill="#c9d1d9" font-size="12">PHP · 50%</text></g><g transform="translate(280,200)">
      <circle cx="5" cy="-4" r="5" fill="#62b543"/>
      <text x="16" y="0" fill="#c9d1d9" font-size="12">HTML · 44%</text></g><g transform="translate(540,200)">
      <circle cx="5" cy="-4" r="5" fill="#a371f7"/>
      <text x="16" y="0" fill="#c9d1d9" font-size="12">CSS · 1%</text></g><g transform="translate(20,220)">
      <circle cx="5" cy="-4" r="5" fill="#e5c07b"/>
      <text x="16" y="0" fill="#c9d1d9" font-size="12">TypeScript · 1%</text></g><g transform="translate(280,220)">
      <circle cx="5" cy="-4" r="5" fill="#db5c5c"/>
      <text x="16" y="0" fill="#c9d1d9" font-size="12">Markdown · 1%</text></g><g transform="translate(540,220)">
      <circle cx="5" cy="-4" r="5" fill="#5ac8fa"/>
      <text x="16" y="0" fill="#c9d1d9" font-size="12">JavaScript · 1%</text></g>
  <text x="20" y="250" fill="#8b949e" font-size="12" font-weight="600">Commits per month</text>
  <rect x="20.0" y="328.0" width="59.5" height="2.0" rx="2" fill="#a371f7"/>
      <text x="49.8" y="344" fill="#6e7681" font-size="9" text-anchor="middle">10</text><rect x="85.5" y="328.0" width="59.5" height="2.0" rx="2" fill="#a371f7"/>
      <text x="115.3" y="344" fill="#6e7681" font-size="9" text-anchor="middle">11</text><rect x="151.0" y="328.0" width="59.5" height="2.0" rx="2" fill="#a371f7"/>
      <text x="180.8" y="344" fill="#6e7681" font-size="9" text-anchor="middle">12</text><rect x="216.5" y="328.0" width="59.5" height="2.0" rx="2" fill="#a371f7"/>
      <text x="246.3" y="344" fill="#6e7681" font-size="9" text-anchor="middle">01</text><rect x="282.0" y="328.0" width="59.5" height="2.0" rx="2" fill="#a371f7"/>
      <text x="311.8" y="344" fill="#6e7681" font-size="9" text-anchor="middle">02</text><rect x="347.5" y="322.4" width="59.5" height="7.6" rx="2" fill="#a371f7"/>
      <text x="377.3" y="344" fill="#6e7681" font-size="9" text-anchor="middle">03</text><rect x="413.0" y="320.5" width="59.5" height="9.5" rx="2" fill="#a371f7"/>
      <text x="442.8" y="344" fill="#6e7681" font-size="9" text-anchor="middle">04</text><rect x="478.5" y="322.0" width="59.5" height="8.0" rx="2" fill="#a371f7"/>
      <text x="508.3" y="344" fill="#6e7681" font-size="9" text-anchor="middle">05</text><rect x="544.0" y="260.0" width="59.5" height="70.0" rx="2" fill="#a371f7"/>
      <text x="573.8" y="344" fill="#6e7681" font-size="9" text-anchor="middle">06</text><rect x="609.5" y="294.3" width="59.5" height="35.7" rx="2" fill="#a371f7"/>
      <text x="639.3" y="344" fill="#6e7681" font-size="9" text-anchor="middle">07</text><rect x="675.0" y="288.8" width="59.5" height="41.2" rx="2" fill="#a371f7"/>
      <text x="704.8" y="344" fill="#6e7681" font-size="9" text-anchor="middle">08</text><rect x="740.5" y="327.7" width="59.5" height="2.3" rx="2" fill="#a371f7"/>
      <text x="770.3" y="344" fill="#6e7681" font-size="9" text-anchor="middle">09</text>
</svg>